# File created by Blade
# Date/Time:  Wed Apr 08 16:19:59 2015
# Frame Rate: 120.000 fps
#------------------------------------------------------
:FULLY-SPECIFIED
:DEGREES
3510
root 4.385102 33.023514 1.317656 374.093501 3.520202 -721.624451
Spine -14.681074 -7.361400 0.974736
Head 7.944213 -4.394021 0.765703
LeftShoulder -21.367678 39.969045 20.778054
LeftArm 57.674190 -57.308962 -54.759701
LeftForeArm 11.931761 -0.000000 -0.482512
LeftHand 5.363104 -0.000000 7.875034
LeftHandThumb1 -26.253704 0.000000 33.147579
RightShoulder -8.094059 2.413909 -30.657946
RightArm 10.674117 18.066015 42.711726
RightForeArm -13.914886 -0.000000 1.100703
RightHand 0.607905 -0.000000 1.322776
RightHandThumb1 -24.326973 -0.000000 -32.862282
LeftUpLeg -6.802772 -3.608714 4.059295
LeftLeg -3.513339 -0.000000 0.000000
LeftFoot -3.248662 8.197674 -17.971105
LeftToeBase -9.725307 -0.000000 0.000000
RightUpLeg -7.164765 -2.768672 1.484132
RightLeg -2.479870 -0.000000 0.000000
RightFoot -4.504489 -12.961546 8.361008
RightToeBase -1.400606 -0.000000 0.000000
3511
root 4.394946 33.031054 1.329105 374.114930 3.286453 -721.743474
Spine -14.739708 -7.215342 1.077521
Head 8.034011 -4.416500 0.758885
LeftShoulder -21.348488 39.900355 20.781610
LeftArm 57.454996 -57.345549 -54.589035
LeftForeArm 11.883159 -0.000000 -0.449279
LeftHand 5.393473 -0.000000 7.744076
LeftHandThumb1 -26.253704 0.000000 33.147579
RightShoulder -8.061130 2.561516 -30.786676
RightArm 10.556872 18.074735 42.721048
RightForeArm -14.058126 -0.000000 1.202744
RightHand 0.806603 0.000000 1.447403
RightHandThumb1 -24.326973 -0.000000 -32.862282
LeftUpLeg -6.752745 -3.593333 4.144681
LeftLeg -3.556665 -0.000000 0.000000
LeftFoot -3.281297 8.354965 -18.033377
LeftToeBase -9.726540 -0.000000 0.000000
RightUpLeg -7.155822 -2.573508 1.545822
RightLeg -2.573580 -0.000000 0.000000
RightFoot -4.341360 -12.981360 8.499597
RightToeBase -1.368573 -0.000000 0.000000
3512
root 4.404692 33.035770 1.338820 374.119383 3.062840 -721.865237
Spine -14.770703 -7.079457 1.181482
Head 8.116446 -4.409325 0.773908
LeftShoulder -21.318090 39.844872 20.794195
LeftArm 57.137632 -57.319857 -54.310373
LeftForeArm 11.708955 0.000000 -0.408794
LeftHand 5.313091 0.000000 7.887361
LeftHandThumb1 -26.253704 0.000000 33.147579
RightShoulder -8.027319 2.589240 -30.809620
RightArm 10.576181 18.153016 42.627212
RightForeArm -13.993202 -0.000000 1.294520
RightHand 0.715034 -0.000000 1.180405
RightHandThumb1 -24.326973 -0.000000 -32.862282
LeftUpLeg -6.690887 -3.551354 4.211736
LeftLeg -3.597760 -0.000000 0.000000
LeftFoot -3.341716 8.571957 -17.972185
LeftToeBase -9.754876 -0.000000 0.000000
RightUpLeg -7.164915 -2.490617 1.635111
RightLeg -2.595437 -0.000000 0.000000
RightFoot -4.233809 -12.932169 8.583351
RightToeBase -1.408916 -0.000000 0.000000
3513
root 4.419008 33.037948 1.345873 374.142249 2.819372 -721.928863
Spine -14.813769 -6.951736 1.221032
Head 8.189271 -4.392503 0.808555
LeftShoulder -21.353881 39.866173 20.780971
LeftArm 57.066420 -57.356678 -54.283022
LeftForeArm 11.592399 0.000000 -0.417499
LeftHand 5.591793 0.000000 8.093296
LeftHandThumb1 -26.253704 0.000000 33.147579
RightShoulder -7.970789 2.695195 -30.868107
RightArm 10.505275 18.157171 42.552971
RightForeArm -14.058409 -0.000000 1.430139
RightHand 0.633935 -0.000000 1.183653
RightHandThumb1 -24.326973 -0.000000 -32.862282
LeftUpLeg -6.653830 -3.580343 4.244413
LeftLeg -3.617740 -0.000000 0.000000
LeftFoot -3.435428 8.730528 -18.118473
LeftToeBase -9.704206 -0.000000 0.000000
RightUpLeg -7.187324 -2.418182 1.656814
RightLeg -2.622403 -0.000000 0.000000
RightFoot -4.185796 -12.865009 8.658401
RightToeBase -1.363748 -0.000000 0.000000
3514
root 4.431383 33.038093 1.351922 374.168012 2.573960 -721.969028
Spine -14.853868 -6.820080 1.218396
Head 8.257071 -4.405193 0.865224
LeftShoulder -21.365023 39.865951 20.794392
LeftArm 57.045748 -57.435082 -54.336192
LeftForeArm 11.655725 0.000000 -0.342118
LeftHand 5.511322 -0.000000 8.145987
LeftHandThumb1 -26.253704 0.000000 33.147579
RightShoulder -7.936742 2.751199 -30.901607
RightArm 10.485858 18.185754 42.486809
RightForeArm -14.109941 0.000000 1.559260
RightHand 0.644081 0.000000 1.087837
RightHandThumb1 -24.326973 -0.000000 -32.862282
LeftUpLeg -6.621913 -3.554547 4.241832
LeftLeg -3.632195 -0.000000 0.000000
LeftFoot -3.544935 8.867253 -18.212999
LeftToeBase -9.618258 -0.000000 0.000000
RightUpLeg -7.217646 -2.386144 1.661201
RightLeg -2.626846 -0.000000 0.000000
RightFoot -4.189782 -12.734242 8.742346
RightToeBase -1.308905 -0.000000 0.000000
3515
root 4.442642 33.035774 1.355089 374.184090 2.360591 -722.013630
Spine -14.870383 -6.707383 1.218866
Head 8.309040 -4.419349 0.946131
LeftShoulder -21.349895 39.843644 20.820217
LeftArm 56.894075 -57.456252 -54.221258
LeftForeArm 11.552118 -0.000000 -0.309702
LeftHand 5.438199 -0.000000 8.326339
LeftHandThumb1 -26.253704 0.000000 33.147579
RightShoulder -7.927825 2.773177 -30.941620
RightArm 10.506906 18.174721 42.445373
RightForeArm -14.069446 -0.000000 1.690401
RightHand 0.610954 0.000000 0.966918
RightHandThumb1 -24.326973 -0.000000 -32.862282
LeftUpLeg -6.571750 -3.610095 4.246405
LeftLeg -3.688000 -0.000000 0.000000
LeftFoot -3.678901 9.121962 -18.237063
LeftToeBase -9.517579 -0.000000 0.000000
RightUpLeg -7.290586 -2.480980 1.703275
RightLeg -2.526004 -0.000000 0.000000
RightFoot -4.258389 -12.540327 8.700958
RightToeBase -1.174105 -0.000000 0.000000
3516
root 4.455882 33.030357 1.356244 374.193741 2.167971 -722.002761
Spine -14.867027 -6.655777 1.168020
Head 8.331038 -4.403233 1.039100
LeftShoulder -21.397407 39.846486 20.821598
LeftArm 56.889586 -57.523289 -54.276483
LeftForeArm 11.582967 -0.000000 -0.292799
LeftHand 5.552282 -0.000000 8.385170
LeftHandThumb1 -26.253704 0.000000 33.147579
RightShoulder -7.895152 2.806054 -30.960631
RightArm 10.527040 18.215300 42.393844
RightForeArm -14.130074 -0.000000 1.852706
RightHand 0.584546 0.000000 0.953320
RightHandThumb1 -24.326973 -0.000000 -32.862282
LeftUpLeg -6.536231 -3.591278 4.186809
LeftLeg -3.714359 -0.000000 0.000000
LeftFoot -3.781448 9.242308 -18.275580
LeftToeBase -9.478498 -0.000000 0.000000
RightUpLeg -7.333445 -2.529125 1.666646
RightLeg -2.462289 -0.000000 0.000000
RightFoot -4.391926 -12.361654 8.747867
RightToeBase -1.068801 -0.000000 0.000000
3517
root 4.471219 33.022496 1.357195 374.200767 1.991659 -721.945809
Spine -14.866116 -6.635434 1.073058
Head 8.363858 -4.382758 1.126760
LeftShoulder -21.446651 39.908051 20.790746
LeftArm 56.990247 -57.644716 -54.413275
LeftForeArm 11.601594 -0.000000 -0.265105
LeftHand 5.564099 -0.000000 8.452284
LeftHandThumb1 -26.253704 0.000000 33.147579
RightShoulder -7.855006 2.828889 -30.986241
RightArm 10.564540 18.212187 42.358636
RightForeArm -14.150295 -0.000000 1.977777
RightHand 0.711665 -0.000000 0.799039
RightHandThumb1 -24.326973 -0.000000 -32.862282
LeftUpLeg -6.504753 -3.534247 4.073053
LeftLeg -3.732492 -0.000000 0.000000
LeftFoot -3.893151 9.314263 -18.296628
LeftToeBase -9.298732 -0.000000 0.000000
RightUpLeg -7.368019 -2.573087 1.578181
RightLeg -2.401389 -0.000000 0.000000
RightFoot -4.570643 -12.195596 8.788401
RightToeBase -0.888116 -0.000000 0.000000
3518
root 4.486571 33.011758 1.358133 374.215837 1.833757 -721.869921
Spine -14.876674 -6.604786 0.950744
Head 8.395371 -4.398965 1.231186
LeftShoulder -21.440114 39.904178 20.799215
LeftArm 56.968076 -57.727690 -54.381603
LeftForeArm 11.741392 -0.000000 -0.294680
LeftHand 5.502296 -0.000000 8.344055
LeftHandThumb1 -26.253704 0.000000 33.147579
RightShoulder -7.833908 2.918097 -31.039006
RightArm 10.517729 18.128302 42.320337
RightForeArm -14.132417 0.000000 2.122754
RightHand 0.751995 -0.000000 0.745488
RightHandThumb1 -24.326973 -0.000000 -32.862282
LeftUpLeg -6.481195 -3.466466 3.939727
LeftLeg -3.747545 -0.000000 0.000000
LeftFoot -4.001225 9.356088 -18.298856
LeftToeBase -9.206267 -0.000000 0.000000
RightUpLeg -7.411179 -2.626970 1.473584
RightLeg -2.331330 -0.000000 0.000000
RightFoot -4.808133 -12.030328 8.851437
RightToeBase -0.754094 -0.000000 0.000000
